<svg width="21" height="21" viewBox="0 0 21 21" fill="none" xmlns="http://www.w3.org/2000/svg">
<path d="M5.99606 6.75772C6.81836 4.8136 8.7434 3.44946 10.9871 3.44946C13.0617 3.44946 14.864 4.61585 15.7738 6.32865C15.9711 6.70001 16.0697 6.8857 16.1231 6.95852C16.2064 7.07219 16.1794 7.04192 16.2829 7.13757C16.3492 7.19886 16.5368 7.32766 16.9119 7.58525C18.1148 8.41134 18.9037 9.7966 18.9037 11.3661C18.9037 12.4742 18.5105 13.4903 17.8561 14.2828M5.99606 6.75772C5.98314 6.78827 5.97049 6.81896 5.95812 6.84979M5.99606 6.75772C5.98339 6.78768 5.97098 6.81778 5.95883 6.84802C5.95859 6.84861 5.95836 6.8492 5.95812 6.84979M5.95812 6.84979C5.70801 7.47301 5.57039 8.1535 5.57039 8.86613M5.95812 6.84979C5.68942 7.51864 5.55502 7.85315 5.49044 7.95338C5.36392 8.14975 5.45854 8.03725 5.28676 8.19555C5.19901 8.27642 4.80468 8.52049 4.01622 9.00851C2.94841 9.66943 2.23706 10.8514 2.23706 12.1995C2.23706 12.9704 2.46967 13.6869 2.86854 14.2828M13.9037 13.9748C13.0735 12.972 12.1091 12.0673 11.0332 11.2813C10.7572 11.0797 10.3835 11.0797 10.1076 11.2813C9.03169 12.0673 8.06729 12.972 7.23706 13.9748M10.5704 18.4495V11.1383" stroke="#507AD3" stroke-width="2" stroke-linecap="round" stroke-linejoin="round"/>
</svg>
